<?xml version="1.0" encoding="UTF-8"?>
<!DOCTYPE svg PUBLIC "-//W3C//DTD SVG 1.1//EN" "http://www.w3.org/Graphics/SVG/1.1/DTD/svg11.dtd">
<svg xmlns="http://www.w3.org/2000/svg" version="1.1" width="512px" height="512px" style="shape-rendering:geometricPrecision; text-rendering:geometricPrecision; image-rendering:optimizeQuality; fill-rule:evenodd; clip-rule:evenodd" xmlns:xlink="http://www.w3.org/1999/xlink">
<g><path style="opacity:1" fill="#f9faf9" d="M 152.5,18.5 C 170.008,15.8946 185.341,20.3946 198.5,32C 261,94.5 323.5,157 386,219.5C 405.333,243.5 405.333,267.5 386,291.5C 323.5,354 261,416.5 198.5,479C 183.982,491.639 167.315,495.639 148.5,491C 124.536,483.023 111.869,466.356 110.5,441C 111.126,428.45 115.292,417.283 123,407.5C 173.68,356.986 224.18,306.32 274.5,255.5C 224.18,204.68 173.68,154.014 123,103.5C 107.361,82.3002 106.694,60.6336 121,38.5C 129.22,28.1454 139.72,21.4788 152.5,18.5 Z"/></g>
</svg>
