<?xml version="1.0" encoding="UTF-8"?>
<!DOCTYPE svg PUBLIC "-//W3C//DTD SVG 1.1//EN" "http://www.w3.org/Graphics/SVG/1.1/DTD/svg11.dtd">
<svg xmlns="http://www.w3.org/2000/svg" version="1.1" width="512px" height="512px" style="shape-rendering:geometricPrecision; text-rendering:geometricPrecision; image-rendering:optimizeQuality; fill-rule:evenodd; clip-rule:evenodd" xmlns:xlink="http://www.w3.org/1999/xlink">
<g><path style="opacity:1" fill="#f9faf9" d="M 73.5,59.5 C 115.836,58.168 155.503,67.668 192.5,88C 212.762,100.928 228.928,117.761 241,138.5C 241.667,236.5 241.667,334.5 241,432.5C 205.603,398.059 163.103,378.559 113.5,374C 99.8365,372.963 86.1698,371.963 72.5,371C 67.4748,369.311 63.6415,366.144 61,361.5C 59.3405,265.223 59.0072,168.89 60,72.5C 62.4169,65.9149 66.9169,61.5815 73.5,59.5 Z"/></g>
<g><path style="opacity:1" fill="#f9faf9" d="M 415.5,59.5 C 423.917,59.0943 432.251,59.5943 440.5,61C 445.757,63.2563 449.257,67.0896 451,72.5C 451.993,168.89 451.659,265.223 450,361.5C 447.359,366.144 443.525,369.311 438.5,371C 404.225,371.268 370.892,376.935 338.5,388C 312.237,397.705 289.404,412.538 270,432.5C 269.333,334.5 269.333,236.5 270,138.5C 291.497,103.142 322.33,79.9753 362.5,69C 380.039,64.3008 397.706,61.1341 415.5,59.5 Z"/></g>
<g><path style="opacity:1" fill="#f9faf9" d="M -0.5,438.5 C -0.5,337.5 -0.5,236.5 -0.5,135.5C 2.32786,128.239 7.6612,124.073 15.5,123C 20.8229,122.501 26.1563,122.334 31.5,122.5C 31.3333,200.501 31.5,278.501 32,356.5C 35.628,381.741 50.128,395.907 75.5,399C 114.999,398.542 152.332,407.209 187.5,425C 198.018,431.182 207.685,438.515 216.5,447C 166.818,437.211 116.818,435.878 66.5,443C 50.2852,445.576 34.1185,448.41 18,451.5C 8.86732,451.177 2.70065,446.843 -0.5,438.5 Z"/></g>
<g><path style="opacity:1" fill="#f9faf9" d="M 511.5,135.5 C 511.5,236.5 511.5,337.5 511.5,438.5C 508.299,446.843 502.133,451.177 493,451.5C 446.062,440.9 398.562,436.733 350.5,439C 331.577,440.389 312.91,443.055 294.5,447C 321.159,422.76 352.492,408.093 388.5,403C 404.075,400.619 419.741,399.285 435.5,399C 460.872,395.907 475.372,381.741 479,356.5C 479.5,278.501 479.667,200.501 479.5,122.5C 487.337,121.968 495.003,122.801 502.5,125C 506.801,127.468 509.801,130.968 511.5,135.5 Z"/></g>
</svg>
